# xmcd CD database file
#
# Track frame offsets:
#	150
#	19202
#	42945
#
# Disc length: 798 seconds
#
# Revision: 0
# Processed by: cddbd v1.5.1PL0 Copyright (c) Steve Scherf et al.
# Submitted via: CDex 1.51
#
DISCID=1d031c03
DTITLE=TRICERATOPS - Raspberry
DYEAR=1997
DGENRE=Rock
TTITLE0=Raspberry
TTITLE1=Star Jet
TTITLE2=Milk
EXTD=YEAR: 1997
EXTT0=
EXTT1=
EXTT2=
PLAYORDER=
